<svg id="Слой_1" data-name="Слой 1" xmlns="http://www.w3.org/2000/svg" viewBox="0 0 136.73 70.77"><title>jelby_logo</title><path d="M135,44.05c-6.48-1.07-13.87-1.2-19.85-4.24-2-1-3.54-2-5.83-2.34-3.07-.46-6.2-.33-9.29-.72-6.56-.82-12.22-4-18.08-6.91-3.1-1.51-6.17-3.13-9.31-4.54-2-.91-4.54-1.57-6.55-2.81a1.89,1.89,0,0,0-.25-1.9,3.13,3.13,0,0,0-2.66-1.17C59,17.8,54.82,16.1,50.75,14.18c-3.44-1.62-7-3-10.47-4.6,1.79-1,2.52-3.94,2.52-5.81,0-2.42-2-3.48-4.17-3.73-3.24-.38-7.15,2-7.27,5.13-3.59-.89-8.83.29-11.58.46C13.36,6,7.75,3,1.48,5.1c-.13,0-.12.26,0,.25a28.09,28.09,0,0,1,9.09.77,33,33,0,0,0,8,1.13c2.72,0,5.43-.39,8.15-.37A21.76,21.76,0,0,1,31,7.62a8.24,8.24,0,0,0-5.34,2.57c-1.75,1.89-3,6.08,0,7.42.82.36,2.1-.26,1.71-1.31a3.76,3.76,0,0,1,.91-4.51c2.15-2,5.57-1.27,5.75,2,.24,4.42-4.58,5.51-6.85,8.42-.62.78-.09,2.32,1.1,1.89,2.9-1,7-4.6,8.08-7.59,1-2.8.19-6.93-2.68-8.36A4.22,4.22,0,0,0,33,7.87a5.42,5.42,0,0,0,1.2-.11.4.4,0,0,0,.25-.59A4.08,4.08,0,0,0,33.33,6a4.47,4.47,0,0,1,5-3.36c.79.12,1.68.21,1.72,1.22a4.43,4.43,0,0,1-.62,1.59,8.94,8.94,0,0,0-1.23,3.13l-.88-.43a.31.31,0,0,0-.31.54c4.43,3.05,8.6,6.12,13.44,8.53,3.43,1.71,6.91,3.32,10.45,4.8,0,0,0,.11.08.16,1.53,2.08,3.49,3.14,5.74,4.33,3.25,1.73,6.51,3.35,9.84,4.91,6.15,2.89,12.25,6.31,18.89,7.91a49.23,49.23,0,0,0,9.43,1.24,33.33,33.33,0,0,1,5.1.25c1.74.36,3.14,1.4,4.74,2.09,5.87,2.53,13.57,3.78,19.93,3.92C136.15,46.86,136.57,44.32,135,44.05Z" style="fill:#e6e6e8"/><path d="M84.81,67.82c-2.15-.61-2.12-4.43-2.5-6.19a36.69,36.69,0,0,0-1.76-6.16c-.91-2.22-2.67-4.42-5.34-4.14-7.74.8.12,17.47-7.91,17C63,68,62.09,63.1,58.58,61.65a4.12,4.12,0,0,0-2.79-.12c-1.35.38-3.09,2.52-4.44,2.39-1.84-.19-1.57-3.07-2.29-4.22A3.8,3.8,0,0,0,46.22,58a5.94,5.94,0,0,0-3.08.59c2.21-3.26,4.39-6.56,6.27-10,1-1.83,2.25-5.25-1.14-5.29-3.74,0-7.69,3.93-10,6.46A32.58,32.58,0,0,0,34,56l-.18-.38c-.27-.57-1.26-.16-1,.44s.33.89.48,1.34a46.46,46.46,0,0,0-1.95,4.53.66.66,0,0,0,1.2.51c.45-.91.94-1.84,1.47-2.77v0a7.26,7.26,0,0,0,1.24,3.08.85.85,0,0,0,1.44-.6,6.77,6.77,0,0,0-1.15-3.12L35,58c2.74-4.39,6.39-8.64,10.71-10.92a9.68,9.68,0,0,0,1.91-.95,24,24,0,0,1-1.52,2.09c-1,1.45-1.87,3-2.79,4.43-2.09,3.33-4.18,6.65-6.24,10-.69,1.13.76,2.77,1.92,1.92,1-.7,1.9-1.45,2.87-2.12,1.41-1,1.68-1.27,3.49-.7,2.16.69,1.34.58,1.66,2.23a4.46,4.46,0,0,0,.46,1.42,2.73,2.73,0,0,0,4.19.74c2.53-1.83,4.75-5.79,8.32-1.51,1.12,1.34,1.55,3.09,2.89,4.29a7.38,7.38,0,0,0,7.09,1.51c2.44-.79,3.47-3.08,3.9-5.46.32-1.72.35-3.53.5-5.28a30.59,30.59,0,0,1,.34-4l2.62.66c.16.5.31,1,.46,1.51a61.71,61.71,0,0,1,1.58,6.44c.27,1.43.34,3.13,1.25,4.34,1.16,1.56,3.25,2,4.55.42A.76.76,0,0,0,84.81,67.82Z" style="fill:#e6e6e8"/><path d="M121.78,52.29c-6.6,1.57-10.9,5.46-14.19,10.66-.29-1.74-1.09-3.14-3.22-3-1.78.11-3.05,2.15-4.1,3.3-1.52,1.66-2.25,2.12-4.54,2.15a49.06,49.06,0,0,1-5.11-.49c-2.05-.19-2,3,0,3.2,2.75.26,7.09,1.65,9.46-.29,1.18-1,2-3.27,3.34-3.92,2.68-1.28,1.32,3.37,1.31,4.69a1.59,1.59,0,0,0,2.94.79c3.27-6.17,9.46-11.52,14.75-16C123,52.94,122.37,52.15,121.78,52.29Z" style="fill:#e6e6e8"/><path d="M136.55,63.09c-2.39-2.09-6.25-4.33-9-1.81a29.13,29.13,0,0,0-2.68,3.08c-.41.5-1.06,1.47-1.2,1.38s-.07-1.4-.07-1.61c-.06-3.17.61-7,2.59-9.56,1-1.31-.71-3.17-1.86-1.87-2.29,2.58-4.19,5.11-4.75,8.6-.32,2-.86,6.19,1.81,6.88a2.43,2.43,0,0,0,2.35-.79c1.58-1.51,1.92-4.59,4.51-5.21s3.46,1,5.36,1.89a2.81,2.81,0,0,0,2.83,0A.64.64,0,0,0,136.55,63.09Z" style="fill:#e6e6e8"/><path d="M17.31,26.13a.06.06,0,1,0,0,.12A.06.06,0,1,0,17.31,26.13Z" style="fill:#e6e6e8"/><path d="M31.47,40.16a18.66,18.66,0,0,0-4.85,2.52,49.84,49.84,0,0,0-4.18,4.17c0-.1,0-.19-.05-.28a.44.44,0,0,0-.74-.19c-.3.27-.6.54-.89.82.6-2.28,2.12-4.29,3-6.53.13-.32-.2-.57-.46-.6a6.43,6.43,0,0,0-3.6.53c-.13-1,.53-2.07.16-3.07s-1.1-1.3-2-1.66a9.88,9.88,0,0,0-4.74-.38c-2,.26-3.85,1.49-5.79,1.62,1.82-1.19,3.65-2.39,5.47-3.6s4.14-2,5.59-3.42c1.92-1.92.82-4.72-.71-6.56A1.06,1.06,0,0,0,18,21.76c-2.69-2.13-4.61-5.06-7.42-7a42.59,42.59,0,0,0-4.85-2.48c-.93-.49-7.59-4.83-4.27-6.66a0,0,0,0,0,0-.06c-3.2,1.32-.23,4.42,1.51,6S7.12,13.83,9.24,15c3.42,1.82,5,5,6.92,8.2l.12.16v0l.2.48a5.31,5.31,0,0,0-2.57,2.92,27.7,27.7,0,0,0-.48,3c-.13.66-.32,1.24-.39,1.86a2.83,2.83,0,0,0-.58-.5l-.86-.57a.44.44,0,0,0-.6.6l.57.86a2.76,2.76,0,0,0,.5.57l-1,.56c0-.36-.27-.5-.57-.71l-.83-.6c-.18-.13-.4.12-.3.3l.53.9a1.21,1.21,0,0,0,.45.53l-1.74,1a5.41,5.41,0,0,0-.76-.48c-.26-.17-.54-.32-.81-.49a.29.29,0,0,0-.42.31,6,6,0,0,0,.68,1.43L6,36.15l0-.06-.85-.66c-.18-.14-.45.12-.26.27l.82.64-.93.55a.81.81,0,0,0,0,1.39c3.17,1.53,5.58-.45,8.76-1,2.43-.43,4.58-1,4.93,2.35.1,1-.18,1.31.29,2.28a.69.69,0,0,0,1.08.13,3.93,3.93,0,0,1,2.72-1.1c-1.85,2.82-5.16,5.27-3.77,9,.24.64,1.29,1,1.64.21.21-.43.42-.85.64-1.26a.87.87,0,0,0,1.59.1c1.61-3.37,6.24-6.09,9.06-8.43A.25.25,0,0,0,31.47,40.16ZM14.74,29.4a9.61,9.61,0,0,0,.68-1.54,21.15,21.15,0,0,1,1.32-3.43c.73,1.66,1.41,3.2,0,5.14a4,4,0,0,1-.71.71c-.15-.13-.33-.21-.5-.36a.29.29,0,0,0-.48.28,2.21,2.21,0,0,0,.26.59h0c-.41.26-.84.5-1.27.72A7.71,7.71,0,0,1,14.74,29.4Z" style="fill:#e6e6e8"/><path d="M33.49,39.68c-1.87,2.34-4.43,4-6.6,6.06-1.92,1.81-4.4,4.1-5.22,6.67-.29.9.71,1.38,1.37,1l0,0h0a1.09,1.09,0,0,0,1.91-.7,1.35,1.35,0,0,0-.07-.46,1.51,1.51,0,0,0-.1-.38c1.55-1.61,2.87-3.62,4.34-5.2,1.88-2,4.05-3.78,5.62-6.08C35.29,39.91,34.07,39,33.49,39.68Z" style="fill:#e6e6e8"/><path d="M26.58,55.4a1.1,1.1,0,0,0,0-.26,5.73,5.73,0,0,0-.49-1.62,6.25,6.25,0,0,1-.35-1.9s-.06,0-.06,0a11.74,11.74,0,0,1-.56,2.55c-.2.69-.27,1.44.4,1.85a.73.73,0,0,0,.87-.11.78.78,0,0,0,.2-.51Z" style="fill:#e6e6e8"/><path d="M30,55.41a6.45,6.45,0,0,0-.53,2.2c0,.43.11,1.52.64,1.64s.6-.55.72-.89a17.31,17.31,0,0,1,.77-2.27A.87.87,0,1,0,30,55.41Z" style="fill:#e6e6e8"/><path d="M18.8,13.65a18.16,18.16,0,0,0-2.26-3.11,1.19,1.19,0,0,0-1.22-.34c-.22.07-.36.24-.57.3a1.66,1.66,0,0,1-1-.23.82.82,0,0,0-.63.08.8.8,0,0,0-.39.56v.15a.79.79,0,0,0,.4.71,4.93,4.93,0,0,0,.86.43,2.37,2.37,0,0,0-.09.36,1.53,1.53,0,0,0,2,1.59,1.21,1.21,0,0,0,.84,0c.11.18.22.36.33.52C17.69,15.8,19.51,14.73,18.8,13.65Z" style="fill:#e6e6e8"/><path d="M3.36,7.79a4.23,4.23,0,0,1-1.84-.06c-.07,0-.11.08-.05.11a4.57,4.57,0,0,0,2,.44C3.78,8.28,3.73,7.72,3.36,7.79Z" style="fill:#e6e6e8"/><path d="M5.58,42.6c3.94,1.25,7.15,4.7,10.07,7.51a56.31,56.31,0,0,1,8.53,10.26c.12.19-.16.34-.29.17a95.78,95.78,0,0,0-9-9.68A123.22,123.22,0,0,0,5.34,43C5.14,42.85,5.36,42.53,5.58,42.6Z" style="fill:#e6e6e8"/><path d="M1.65,60.35c1.08-.34,2.75.33,3.73.74,1.2.49,3,1.9,4.46,2.21A9.89,9.89,0,0,0,8,61.16,9.66,9.66,0,0,1,5.84,59c-.55-.9-.73-2.19.67-2.29a5.32,5.32,0,0,1,2.22.88c1.23.58,2.46,1.15,3.63,1.84a39,39,0,0,1,4.36,3.41,54.35,54.35,0,0,0-5.41-10.2q-2-3-4.32-5.91C6,45.48,4.28,44,3.92,42.37a.15.15,0,0,1,.28-.11c1.4,2,3.19,3.69,4.68,5.59s2.74,3.64,4,5.52,2.64,3.9,3.83,5.94c1,1.71,2.17,3.42,2.16,5.46a.71.71,0,0,1-1.07.61c-2.77-2-5.09-4.42-8.06-6.16C9.38,59,7.28,57.77,7.12,58c-.39.53.42,1.41.73,1.85,1,1.41,2.45,2.34,3.53,3.67a.64.64,0,0,1-.28,1.06c-1.53.38-3.11-.69-4.45-1.3-1-.44-1.91-.88-2.85-1.34-1.38-.66-.95-.63-.56.46.16.47-.39.73-.76.58a2.19,2.19,0,0,1-1.32-2A.67.67,0,0,1,1.65,60.35Z" style="fill:#e6e6e8"/><path d="M34.92,22.42h-5v17a4.54,4.54,0,0,1-1.08,3.27,3.92,3.92,0,0,1-2.95,1.11,4.51,4.51,0,0,1-3.27-1.44L19.31,45.6a8.8,8.8,0,0,0,3,2,10,10,0,0,0,3.63.61A9.41,9.41,0,0,0,32.29,46a8,8,0,0,0,2.63-6.35Z" style="fill:#222030"/><path d="M55.79,43.56H43.93V37.34H54V32.88H43.93v-6H55.79V22.42H38.93V48H55.79Z" style="fill:#222030"/><path d="M66.58,44.06h-1.8a1.48,1.48,0,0,1-1.65-1.69V22.42H58.46V42.66a5.53,5.53,0,0,0,1.38,3.77A5.1,5.1,0,0,0,63.92,48h2.66Z" style="fill:#222030"/><path d="M84.14,34.89a5.9,5.9,0,0,0,2.18-2,5.67,5.67,0,0,0,1-3.33,6.82,6.82,0,0,0-2.1-5.25,8.26,8.26,0,0,0-5.81-1.94H69.11V48H79.83a8.16,8.16,0,0,0,5.68-1.94,6.91,6.91,0,0,0,2.15-5.43,5.85,5.85,0,0,0-3.52-5.75Zm-4.82,8.67H74.11V37.27h5.21a3.29,3.29,0,0,1,2.48.88,3,3,0,0,1,.87,2.24,3.14,3.14,0,0,1-.87,2.27,3.26,3.26,0,0,1-2.48.9ZM79,32.77H74.11V26.88H79a3.42,3.42,0,0,1,2.44.81,3.07,3.07,0,0,1,0,4.28,3.46,3.46,0,0,1-2.44.8Z" style="fill:#222030"/><path d="M88.57,44.05a7.14,7.14,0,0,1-2.11,3.47,7,7,0,0,1-.6.48H92.6v-4Z" style="fill:#222030;fill-rule:evenodd"/><path d="M103,22.42,98.26,32.74,93.48,22.42H88.05l7.7,15.1V48h5V37.52l7.69-15.1Z" style="fill:#222030"/><path d="M44,67.61H41.1V61l-2.16,4.26H37.31L35.12,61v6.65H32.23V56.11h2.85l3,6,3-6H44Z" style="fill:#f57e2d"/><path d="M55.9,67.61H53.09v-1a3.76,3.76,0,0,1-1.22.85,4.51,4.51,0,0,1-1.6.25,4,4,0,0,1-2.94-1,3.59,3.59,0,0,1-.95-2.58,3.13,3.13,0,0,1,1-2.4,4.22,4.22,0,0,1,3-.93H53v-.58a1.72,1.72,0,0,0-.51-1.38,2.54,2.54,0,0,0-1.63-.43,2.77,2.77,0,0,0-2.21,1l-1.81-1.79a4.6,4.6,0,0,1,1.75-1.28A6.62,6.62,0,0,1,51,56c3.26,0,4.9,1.36,4.9,4.07ZM53,63.37v-.62H50.84c-1.13,0-1.7.44-1.7,1.33s.58,1.3,1.75,1.3a2.37,2.37,0,0,0,1.7-.55A1.9,1.9,0,0,0,53,63.37Z" style="fill:#f57e2d"/><path d="M67.4,57.05l-2.16,2.19a2.15,2.15,0,0,0-1.53-.68,1.8,1.8,0,0,0-1.29.55,2.12,2.12,0,0,0-.56,1.57v6.93H59V56.11h2.8v1.1A3.41,3.41,0,0,1,63,56.33,4,4,0,0,1,64.69,56,3.67,3.67,0,0,1,67.4,57.05Z" style="fill:#f57e2d"/><path d="M79.5,67.61H76l-2.83-4.79-1.21,1.37v3.42H69V51.89h2.87v8.92l3.82-4.7h3.46l-4.1,4.63Z" style="fill:#f57e2d"/><path d="M90,62.75h-7.2a2.61,2.61,0,0,0,.66,1.86,2.41,2.41,0,0,0,1.85.7,3.53,3.53,0,0,0,1.45-.25,4.27,4.27,0,0,0,1.16-.83l1.74,1.7a5.41,5.41,0,0,1-4.37,1.81,7,7,0,0,1-2-.27,4.87,4.87,0,0,1-1.66-.92,4.27,4.27,0,0,1-1.22-1.83,8.45,8.45,0,0,1-.44-2.87,6.34,6.34,0,0,1,1.37-4.32,5.11,5.11,0,0,1,7.33,0,6,6,0,0,1,1.33,4Zm-2.83-2a2.92,2.92,0,0,0-.27-1.24,2.14,2.14,0,0,0-3.84,0,2.93,2.93,0,0,0-.26,1.24Z" style="fill:#f57e2d"/><path d="M97.76,67.61H96.19a3.11,3.11,0,0,1-2.48-1,3.39,3.39,0,0,1-.85-2.32v-5.7H91.65V56.44h1.21V53h2.87v3.4h2v2.18h-2v5.52c0,.69.33,1,1,1h1Z" style="fill:#f57e2d"/></svg>
